<?xml version="1.0" encoding="utf-8"?>
<!-- Generator: Adobe Illustrator 21.1.0, SVG Export Plug-In . SVG Version: 6.00 Build 0)  -->
<svg version="1.1" id="Layer_1" xmlns="http://www.w3.org/2000/svg" xmlns:xlink="http://www.w3.org/1999/xlink" x="0px" y="0px"
	 viewBox="0 0 500 81.3" style="enable-background:new 0 0 500 81.3;" xml:space="preserve">
<style type="text/css">
	.st0{fill:#DF3741;}
</style>
<g>
	<g>
		<path class="st0" d="M85,15.1l7.2-1.4l-6-1.3l3.2-3.8L83.8,10l1-5.5L81,7.1L79.2,0l-1.6,8.1L73,4.5l1.5,4.9l-4.4-0.8l3.8,4
			l-6.3,1.3l6.4,1.4l-2.6,2.9l4-0.3l-1.8,5.4l4.4-4.5l1.3,7.2l1.4-7.2l3.4,3.6l-0.4-4.5l4.9,1.7L85,15.1z M82.5,13.2
			c0,1.7-1.3,3-3,3s-3-1.3-3-3s1.3-3,3-3C81.2,10.2,82.5,11.5,82.5,13.2z"/>
		<g>
			<path class="st0" d="M494.9,29.3h1.1c0.7,0,0.9,0.4,0.9,0.7c0,0.4-0.2,0.7-0.9,0.7h-1.1V29.3z M495.9,31.4c0.3,0,0.5,0,0.7,0.2
				s0.2,0.6,0.3,1.1c0,0.3,0.1,0.6,0.2,0.9h0.7c-0.2-0.5-0.2-1-0.3-1.4c-0.1-0.5-0.2-0.8-0.7-1l0,0c0.6-0.1,0.9-0.6,0.9-1.2
				c0-1-0.8-1.2-1.6-1.2h-1.7v4.8h0.7v-2.2C495.1,31.4,495.9,31.4,495.9,31.4z"/>
			<path class="st0" d="M499.3,31.1c0,1.9-1.6,3.5-3.5,3.5s-3.5-1.6-3.5-3.5c0-1.9,1.6-3.5,3.5-3.5
				C497.7,27.7,499.3,29.2,499.3,31.1z M495.8,27c-2.3,0-4.2,1.9-4.2,4.2s1.9,4.2,4.2,4.2c2.3,0,4.2-1.9,4.2-4.2
				C500,28.8,498.1,27,495.8,27z"/>
		</g>
		<path class="st0" d="M42.8,11.9l-5.9,20.5c-0.6,2.2-1,4.6-1.3,6.9h-0.5l-7.2-27.4H8.4L0,64h18.3l2.2-22.3c0.2-2.1,0.3-4.2,0.5-6.3
			h0.6c0.1,2.2,0.6,4.3,1.2,6.5L29.6,64h11.1l7.5-23.4c0.6-1.7,0.9-3.5,1.2-5.2h0.3L52.3,64h18.3L62,11.9
			C62,11.9,42.8,11.9,42.8,11.9z"/>
		<path class="st0" d="M88.6,40.1V27.3H70.7V64h17.8V51.8c2.4,8.5,9.8,13,19.6,13c3.1,0,6.2-0.8,9-1.7l0.8-15.1
			c-2.1,1.5-4.1,2.8-6.9,2.8c-2.9,0-5.3-2.3-5.3-5.3c0-3.3,2.3-5.5,5.6-5.5c2.6,0,4.7,1.5,6.6,3V28.3c-3.6-1.2-7.5-1.9-11.2-1.9
			C97.8,26.4,90.8,32.1,88.6,40.1z"/>
		<path class="st0" d="M472.3,26.6L466,41l-1.8,5.6h-0.5l-0.1-5.6l-1.8-14.4h-18.3h-0.9h-16.3l-0.3,5.3h-0.5
			c-1.8-3.9-5.1-6.1-9.8-6.1c-8.9,0-15.5,7.7-18,15.7c-0.9-9.5-8.8-15-19.5-15c-8,0-15.6,3.6-20.1,9.8l1.4-8.8l-6,0.3l1.9-12.3h-18
			l-2,12.3l-3.7-0.2v-0.2h-17.5l-0.1,4.4h-0.4c-2.1-3.6-5.5-5.2-9.9-5.2c-8.7,0-15.1,7-17.8,14.8l2.3-14.5c-6-0.1-9.4,0.9-13.3,5.7
			h-0.4l1.2-4.9H258l0,0l-6.1,0.3l1.9-12.3h-18l-2,12.3l-4.3-0.3l-1.8,11.2c-1.8-3.7-5.6-5.8-10.6-6.9l-4.1-1
			c-1.4-0.3-3.7-0.6-3.4-2.6c0.3-2.1,2.9-2.8,4.5-2.8c4.1,0,7.5,1.7,10.4,3.9l7.2-13.3c-4.6-3.1-9.9-4.6-15.8-4.6
			c-11.3,0-23.7,6.9-25.7,19.3c-1.3,8.2,4.2,12.5,11.4,13.8l3.7,0.7c1.7,0.3,4.1,0.6,3.8,2.9c-0.4,2.3-3.5,3.1-5.3,3.1
			c-4.4,0-8.1-2.1-11.1-4.8c0,0-0.4-0.4-1-1c-0.3-12.5-10.3-19.1-22.2-19.1c-7.9,0-14.9,2.9-18.9,8.5v-8.5c-6-0.1-9.3,0.9-12.4,5.7
			h-0.4l0.4-4.9h-17.8V64h17.8V49.9c0-4.6,2.4-7.3,7-7.3c0.9,0,1.6,0.2,2.3,0.4c-0.1,1-0.2,2-0.2,3.1c0,12.2,10.8,18.7,22.3,18.7
			c5.3,0,10.5-1.4,14.5-4.2c5.4,2.9,12.6,4.7,19.1,4.7c11.3,0,23.6-6.2,25.6-18.6c0.3-2,0.3-3.7,0-5.2l3.1-0.2L228,64.1h18l3.6-22.8
			l6,0.4L252,64.3h17.8l2.2-14.1c0.7-4.6,3.5-7.3,8.1-7.3c2.1,0,3.3,0.8,4.8,1.8c-0.1,0.4-0.2,0.8-0.2,1.2c-1.4,8.9,2.5,19,12.5,19
			c5,0,8.3-2.2,12.1-5.7h0.4l-1.3,4.8h17.5l3.6-22.6l3.8-0.3L329.7,64h18l3.6-22.8l3.9,0.2c-0.6,1.5-1,3.1-1.3,4.8
			c-2,12.7,7.6,18.6,19.2,18.6c8.4,0,19-4.1,22.7-12.9h-17.4c-0.6,1.7-2.2,3-4.1,3c-3.7,0-3.7-3.3-3.2-6.3h25.4
			c0,8,4.3,15.5,13,15.5c4.2,0,9.3-2.1,11.7-6.1h0.5l-0.9,3.7c-1.1,4.6-4.6,8.1-9.4,8.1c-4.4,0-9.2-1.6-12.2-4.5l-5.9,12.4l1.7,0.6
			c4.9,1.9,9.6,2.9,15.3,2.9c12.8,0,25.5-5.8,27.7-20.1l5.2-32.6l9.8,31.1l-12.4,18.8h18.8l31.7-51.9L472.3,26.6L472.3,26.6z
			 M170.2,51c-2.8,0-5-2.1-5-5c0-3,2-5.4,5-5.4s5,2.4,5,5.4C175.2,48.9,173,51,170.2,51z M311.9,45.4c-0.4,2.8-2.3,5.5-5.6,5.5
			c-3.2,0-4.2-2.5-3.8-5.4c0.4-2.7,2.6-5,5.4-5C310.7,40.5,312.3,42.5,311.9,45.4z M380.9,41v0.2l0,0l0,0h-0.2h-8.4H372v-0.3
			c0.4-2.7,2-4.5,4.1-4.9c0.3-0.1,0.6-0.1,0.9-0.1c1.2,0,2.2,0.5,2.9,1.3C380.8,38.2,381.2,39.5,380.9,41z M423.9,45
			c-0.4,2.8-2.3,5.1-5.3,5.1c-3.1,0-4.7-2.2-4.2-5.2c0.5-2.9,2.8-5.3,5.7-5.3C423.1,39.7,424.3,42.3,423.9,45z"/>
	</g>
</g>
</svg>
